<svg xmlns="http://www.w3.org/2000/svg" xmlns:xlink="http://www.w3.org/1999/xlink" width="210.637" height="24" viewBox="0 0 210.637 24">
  <defs>
    <clipPath id="clip-path">
      <path id="Path_2" data-name="Path 2" d="M88.953-24.342h-.042A10.189,10.189,0,0,0,81.263-21.2a14.5,14.5,0,0,0-3.506,8.775c-.216,2.4.258,4.2,1.409,5.43S81.952-5.24,84.2-5.228h.036a10.117,10.117,0,0,0,7.157-2.895,2.326,2.326,0,0,0,.725-1.2l1.157-4.483a1.2,1.2,0,0,0-.174-1.037,1.091,1.091,0,0,0-.881-.432H87.155a1.678,1.678,0,0,0-1.63,1.468,1.2,1.2,0,0,0,.276.917,1.1,1.1,0,0,0,.833.354h3.506l-.767,2.865a6.827,6.827,0,0,1-4.615,1.738h-.03a4.224,4.224,0,0,1-3.219-1.031,4.7,4.7,0,0,1-.8-3.644A11.581,11.581,0,0,1,83.2-19.3a6.665,6.665,0,0,1,5.28-2.278,3.517,3.517,0,0,1,3.482,1.9,1.133,1.133,0,0,0,1.079.6h0a1.528,1.528,0,0,0,1.5-1.391,1.265,1.265,0,0,0-.108-.683,5.739,5.739,0,0,0-5.484-3.165" transform="translate(-77.706 24.346)" fill="none"/>
    </clipPath>
    <clipPath id="clip-path-2">
      <path id="Path_4" data-name="Path 4" d="M106.962-11.435c-.6,2.326-2.122,4.795-4.555,4.795h0c-1.433,0-2.08-.857-1.93-2.535.306-3.315,2.35-5.718,4.879-5.718h0a3.255,3.255,0,0,1,2.272.845Zm2.805-5.856h0a1.582,1.582,0,0,0-1.259.6,5.029,5.029,0,0,0-2.781-.779,7.366,7.366,0,0,0-5.472,2.433A10.369,10.369,0,0,0,97.7-8.924a4.8,4.8,0,0,0,.857,3.506A4.118,4.118,0,0,0,101.909-4h0a5.634,5.634,0,0,0,3.452-1.2,1.157,1.157,0,0,0,.216.635,1.127,1.127,0,0,0,.917.42h0A1.708,1.708,0,0,0,108.1-5.435l2.757-10.405a1.241,1.241,0,0,0-.174-1.061,1.127,1.127,0,0,0-.935-.432" transform="translate(-97.644 17.471)" fill="none"/>
    </clipPath>
    <clipPath id="clip-path-3">
      <path id="Path_6" data-name="Path 6" d="M123.285-11.435c-.6,2.326-2.122,4.795-4.549,4.795h0c-1.438,0-2.086-.857-1.93-2.535a7.271,7.271,0,0,1,1.69-4.2,4.292,4.292,0,0,1,3.189-1.522h0a3.224,3.224,0,0,1,2.266.845Zm2.811-5.856h0a1.57,1.57,0,0,0-1.259.6,5.065,5.065,0,0,0-2.787-.779h0c-4.2,0-7.552,3.6-8,8.547a4.8,4.8,0,0,0,.851,3.506A4.136,4.136,0,0,0,118.262-4h0a5.646,5.646,0,0,0,3.452-1.2,1.067,1.067,0,0,0,.216.635,1.109,1.109,0,0,0,.917.42h0a1.7,1.7,0,0,0,1.606-1.295l2.757-10.405a1.241,1.241,0,0,0-.168-1.061,1.145,1.145,0,0,0-.935-.432" transform="translate(-113.997 17.471)" fill="none"/>
    </clipPath>
    <clipPath id="clip-path-4">
      <path id="Path_8" data-name="Path 8" d="M138.821-11.073A3.684,3.684,0,0,1,135.225-8h0c-1.594,0-2.236-.791-2.08-2.559.318-3.488,2.014-5.646,4.423-5.646h0a2.2,2.2,0,0,1,2.188,1.726Zm5.91-13.576a1.157,1.157,0,0,0-.935-.432h0a1.7,1.7,0,0,0-1.606,1.295l-1.564,5.9a3.956,3.956,0,0,0-2.691-.959h0a6.755,6.755,0,0,0-5.257,2.433,10.669,10.669,0,0,0-2.338,6.066,4.681,4.681,0,0,0,.959,3.716,4.411,4.411,0,0,0,3.4,1.265h.03c3.428,0,5.916-2.008,6.833-5.508l3.368-12.719a1.2,1.2,0,0,0-.174-1.061" transform="translate(-130.305 25.081)" fill="none"/>
    </clipPath>
    <clipPath id="clip-path-5">
      <path id="Path_10" data-name="Path 10" d="M150.262-17.119h0a1.708,1.708,0,0,0-1.612,1.295L145.893-5.414a1.235,1.235,0,0,0,.174,1.061,1.145,1.145,0,0,0,.935.432h0a1.708,1.708,0,0,0,1.606-1.295l2.757-10.411a1.2,1.2,0,0,0-.174-1.061,1.157,1.157,0,0,0-.935-.432" transform="translate(-145.842 17.12)" fill="none"/>
    </clipPath>
    <clipPath id="clip-path-6">
      <path id="Path_12" data-name="Path 12" d="M152.262-22.477h0a1.882,1.882,0,0,0-1.888,1.846,1.2,1.2,0,0,0,.341.947,1.2,1.2,0,0,0,.942.354h0a1.8,1.8,0,0,0,1.319-.533,2.1,2.1,0,0,0,.569-1.319,1.163,1.163,0,0,0-.328-.957,1.163,1.163,0,0,0-.954-.337" transform="translate(-150.369 22.484)" fill="none"/>
    </clipPath>
    <clipPath id="clip-path-7">
      <path id="Path_14" data-name="Path 14" d="M167.893-16.776a4.015,4.015,0,0,1-2.565.845h-2.715l1.259-4.795h2.907a2.667,2.667,0,0,1,1.8.509,1.516,1.516,0,0,1,.4,1.331,3,3,0,0,1-1.1,2.116M163.925-7.78h-3.47l1.45-5.49h3.656a2.4,2.4,0,0,1,1.726.557,1.894,1.894,0,0,1,.444,1.564,3.469,3.469,0,0,1-3.806,3.368M171.9-19.168a3.656,3.656,0,0,0-.971-3.111,5.09,5.09,0,0,0-3.632-1.163h-4.274a1.846,1.846,0,0,0-1.684,1.349l-4.07,15.518a1.271,1.271,0,0,0,.2,1.091,1.157,1.157,0,0,0,.935.444h5.017c4.106,0,6.869-2.4,7.193-6.287a3.6,3.6,0,0,0-1.415-3.5,5.718,5.718,0,0,0,2.667-4.345" transform="translate(-157.225 23.441)" fill="none"/>
    </clipPath>
    <clipPath id="clip-path-8">
      <path id="Path_16" data-name="Path 16" d="M184.154-11.442c-.6,2.332-2.116,4.825-4.555,4.825h0a1.8,1.8,0,0,1-1.6-.7,2.841,2.841,0,0,1-.33-1.84,7.258,7.258,0,0,1,1.678-4.2,4.3,4.3,0,0,1,3.195-1.528h0a3.285,3.285,0,0,1,2.272.839Zm3.734-5.394a1.133,1.133,0,0,0-.941-.432h0a1.588,1.588,0,0,0-1.265.6,5.029,5.029,0,0,0-2.787-.773A7.324,7.324,0,0,0,177.435-15a10.339,10.339,0,0,0-2.547,6.12c-.276,3.027,1.349,4.909,4.2,4.915h0a5.622,5.622,0,0,0,3.458-1.2,1.115,1.115,0,0,0,.222.635,1.1,1.1,0,0,0,.911.414h0a1.708,1.708,0,0,0,1.678-1.271l2.733-10.411a1.235,1.235,0,0,0-.168-1.061" transform="translate(-174.857 17.443)" fill="none"/>
    </clipPath>
    <clipPath id="clip-path-9">
      <path id="Path_18" data-name="Path 18" d="M201.1-16.623h-6.875a1.624,1.624,0,0,0-1.606,1.468,1.126,1.126,0,0,0,.27.869,1.115,1.115,0,0,0,.845.348h4.052L190.14-6.074a1.63,1.63,0,0,0-.5,1.007,1.133,1.133,0,0,0,.27.875,1.1,1.1,0,0,0,.821.348h7.354a1.678,1.678,0,0,0,1.63-1.468,1.2,1.2,0,0,0-.246-.875,1.079,1.079,0,0,0-.869-.4h-4.453l7.558-7.828a1.739,1.739,0,0,0,.492-1,1.151,1.151,0,0,0-.27-.875,1.109,1.109,0,0,0-.821-.342" transform="translate(-189.629 16.629)" fill="none"/>
    </clipPath>
    <clipPath id="clip-path-10">
      <path id="Path_20" data-name="Path 20" d="M213.5-11.45c-.6,2.338-2.11,4.825-4.549,4.825h0a1.8,1.8,0,0,1-1.6-.7,2.835,2.835,0,0,1-.33-1.84c.294-3.321,2.344-5.724,4.873-5.724h0a3.254,3.254,0,0,1,2.266.839Zm2.8-5.856h0a1.57,1.57,0,0,0-1.259.6,4.987,4.987,0,0,0-2.787-.779h0c-4.2,0-7.552,3.6-8,8.565a4.825,4.825,0,0,0,.863,3.5,4.136,4.136,0,0,0,3.362,1.415h0a5.622,5.622,0,0,0,3.458-1.2,1.109,1.109,0,0,0,.216.635,1.121,1.121,0,0,0,.917.414,1.654,1.654,0,0,0,1.606-1.289l2.739-10.411a1.241,1.241,0,0,0-.168-1.061,1.133,1.133,0,0,0-.941-.432" transform="translate(-204.207 17.487)" fill="none"/>
    </clipPath>
    <clipPath id="clip-path-11">
      <path id="Path_22" data-name="Path 22" d="M229.833-11.448c-.6,2.338-2.122,4.825-4.555,4.825h0a1.8,1.8,0,0,1-1.6-.7,2.859,2.859,0,0,1-.336-1.84,7.306,7.306,0,0,1,1.684-4.2,4.321,4.321,0,0,1,3.195-1.528h0a3.254,3.254,0,0,1,2.266.839Zm2.793-5.856h0a1.582,1.582,0,0,0-1.259.6,5.059,5.059,0,0,0-2.787-.773h0a7.39,7.39,0,0,0-5.454,2.445A10.411,10.411,0,0,0,220.585-8.9a4.825,4.825,0,0,0,.839,3.512,4.136,4.136,0,0,0,3.363,1.415h0a5.634,5.634,0,0,0,3.458-1.2,1.055,1.055,0,0,0,.338.771,1.055,1.055,0,0,0,.795.278,1.678,1.678,0,0,0,1.606-1.289l2.739-10.411a1.235,1.235,0,0,0-.174-1.061,1.121,1.121,0,0,0-.935-.432" transform="translate(-220.532 17.479)" fill="none"/>
    </clipPath>
    <clipPath id="clip-path-12">
      <path id="Path_24" data-name="Path 24" d="M246.056-16.853a1.1,1.1,0,0,0-.863-.384,5.658,5.658,0,0,0-3.183.983,1.079,1.079,0,0,0-.2-.456,1.133,1.133,0,0,0-.923-.432h0a1.7,1.7,0,0,0-1.606,1.295L236.538-5.435a1.253,1.253,0,0,0,.18,1.055,1.157,1.157,0,0,0,.929.438h0a1.726,1.726,0,0,0,1.606-1.295l1.516-5.748c.6-2.236,2-3.518,3.908-3.518h0a1.648,1.648,0,0,0,1.073-.42,1.576,1.576,0,0,0,.557-1.049,1.2,1.2,0,0,0-.258-.881" transform="translate(-236.492 17.237)" fill="none"/>
    </clipPath>
    <clipPath id="clip-path-13">
      <path id="Path_26" data-name="Path 26" d="M244.617-1.338a.6.6,0,0,1-.468-.2.6.6,0,0,1-.06-.557,1.019,1.019,0,0,1,.372-.521.923.923,0,0,1,.6-.222.533.533,0,0,1,.468.222.6.6,0,0,1,.066.521,1.031,1.031,0,0,1-.39.551,1,1,0,0,1-.6.2" transform="translate(-244.047 2.838)" fill="none"/>
    </clipPath>
    <clipPath id="clip-path-14">
      <path id="Path_28" data-name="Path 28" d="M249.87-8.8a.534.534,0,0,1-.432-.174.491.491,0,0,1-.054-.485.88.88,0,0,1,.348-.474.9.9,0,0,1,.539-.186.528.528,0,0,1,.414.168.485.485,0,0,1,.054.491.917.917,0,0,1-.342.485.893.893,0,0,1-.527.174m.252,1.4-1.2,3.914a1.2,1.2,0,0,1-.384.6.851.851,0,0,1-.551.2.443.443,0,0,1-.42-.21.761.761,0,0,1,0-.6l1.163-3.878a1.2,1.2,0,0,1,.366-.6.833.833,0,0,1,.545-.2.473.473,0,0,1,.432.2.659.659,0,0,1,0,.563" transform="translate(-247.507 10.118)" fill="none"/>
    </clipPath>
    <clipPath id="clip-path-15">
      <path id="Path_30" data-name="Path 30" d="M253.113-6.988l-.048.162a3.627,3.627,0,0,1,.983-.7,2.577,2.577,0,0,1,1.043-.216,1.612,1.612,0,0,1,.887.228.989.989,0,0,1,.438.665,1.43,1.43,0,0,1,0,.533,7.336,7.336,0,0,1-.186.737l-.755,2.517a1.2,1.2,0,0,1-.372.6.839.839,0,0,1-.545.21.449.449,0,0,1-.426-.216.779.779,0,0,1,0-.6l.659-2.248a2.21,2.21,0,0,0,.12-1.031c-.048-.234-.264-.354-.635-.354a1.427,1.427,0,0,0-.725.216,1.918,1.918,0,0,0-.6.6,5.153,5.153,0,0,0-.438,1.133L252-3.05a1.234,1.234,0,0,1-.378.6.863.863,0,0,1-.557.21.443.443,0,0,1-.42-.216.785.785,0,0,1,0-.6l1.2-3.914a1.2,1.2,0,0,1,.342-.6.755.755,0,0,1,.515-.192.48.48,0,0,1,.3.084.39.39,0,0,1,.156.252.857.857,0,0,1-.036.414" transform="translate(-250.59 7.762)" fill="none"/>
    </clipPath>
    <clipPath id="clip-path-16">
      <path id="Path_32" data-name="Path 32" d="M38.407-25.219a14.245,14.245,0,0,0-12.275,8.062l-2.529,5.2a1.614,1.614,0,0,0,1.385,2.469h2.475a1.611,1.611,0,0,1-1.385-2.469l2.529-5.2a14.312,14.312,0,0,1,12.119-8.056h-2.32Z" transform="translate(-23.385 25.219)" fill="none"/>
    </clipPath>
    <clipPath id="clip-path-17">
      <path id="Path_34" data-name="Path 34" d="M41.944-30.261a.875.875,0,0,1,.734.4.874.874,0,0,1,.057.836l-1.007,2.2a1.2,1.2,0,0,1-1.019.689h-3.6A14.22,14.22,0,0,0,24.85-18.087L22.32-12.893A1.616,1.616,0,0,0,23.7-10.425H28.26a1.54,1.54,0,0,0,1.361-.923l.084-.168A2.505,2.505,0,0,1,31.9-12.977h.839a1.8,1.8,0,0,1,.8.18,1.732,1.732,0,0,1,.847,1.055,1.731,1.731,0,0,1-.17,1.342L32.791-7.3a1.738,1.738,0,0,1-1.5,1.012H18.832c-1.99,0-3.051-1.923-2.14-3.81l4.483-9.178c3.177-6.518,9.986-10.963,16.818-10.963Z" transform="translate(-16.362 30.261)" fill="none"/>
    </clipPath>
    <clipPath id="clip-path-18">
      <path id="Path_36" data-name="Path 36" d="M10.155-9.283h8.325a.839.839,0,0,0,.593-.246.839.839,0,0,0,.246-.593v-1.241a.839.839,0,0,0-.246-.593.839.839,0,0,0-.593-.246H10.155a.839.839,0,0,0-.839.839v1.241a.839.839,0,0,0,.839.839" transform="translate(-9.316 12.202)" fill="none"/>
    </clipPath>
    <clipPath id="clip-path-19">
      <path id="Path_38" data-name="Path 38" d="M7.524-10.728A1.409,1.409,0,0,1,6.115-9.319a1.409,1.409,0,0,1-1.409-1.409,1.409,1.409,0,0,1,1.409-1.409,1.409,1.409,0,0,1,1.409,1.409" transform="translate(-4.707 12.136)" fill="none"/>
    </clipPath>
    <clipPath id="clip-path-20">
      <path id="Path_40" data-name="Path 40" d="M3.287-10.728A1.409,1.409,0,0,1,1.879-9.319,1.409,1.409,0,0,1,.47-10.728a1.409,1.409,0,0,1,1.409-1.409,1.409,1.409,0,0,1,1.409,1.409" transform="translate(-0.47 12.136)" fill="none"/>
    </clipPath>
    <clipPath id="clip-path-21">
      <path id="Path_42" data-name="Path 42" d="M13.214-14.6h8.325a.845.845,0,0,0,.839-.845v-1.235a.845.845,0,0,0-.839-.845H13.214a.845.845,0,0,0-.839.845v1.235a.845.845,0,0,0,.839.845" transform="translate(-12.375 17.522)" fill="none"/>
    </clipPath>
    <clipPath id="clip-path-22">
      <path id="Path_44" data-name="Path 44" d="M10.582-16.047a1.409,1.409,0,0,1-.871,1.3,1.409,1.409,0,0,1-1.536-.308,1.409,1.409,0,0,1-.3-1.537,1.409,1.409,0,0,1,1.306-.865,1.4,1.4,0,0,1,.994.413,1.4,1.4,0,0,1,.409,1" transform="translate(-7.765 17.456)" fill="none"/>
    </clipPath>
    <clipPath id="clip-path-23">
      <path id="Path_46" data-name="Path 46" d="M6.316-16.047a1.409,1.409,0,0,1-.871,1.3,1.409,1.409,0,0,1-1.536-.308,1.409,1.409,0,0,1-.3-1.537,1.409,1.409,0,0,1,1.306-.865,1.4,1.4,0,0,1,.994.413,1.4,1.4,0,0,1,.409,1" transform="translate(-3.499 17.456)" fill="none"/>
    </clipPath>
    <clipPath id="clip-path-24">
      <path id="Path_48" data-name="Path 48" d="M16.8-20.193h8.325a.839.839,0,0,0,.839-.839v-1.241a.839.839,0,0,0-.839-.839H16.8a.839.839,0,0,0-.839.839v1.241a.839.839,0,0,0,.839.839" transform="translate(-15.96 23.112)" fill="none"/>
    </clipPath>
    <clipPath id="clip-path-25">
      <path id="Path_50" data-name="Path 50" d="M14.168-21.623a1.409,1.409,0,0,1-.871,1.3,1.409,1.409,0,0,1-1.536-.308,1.409,1.409,0,0,1-.3-1.537,1.409,1.409,0,0,1,1.306-.865,1.4,1.4,0,0,1,.994.413,1.4,1.4,0,0,1,.409,1" transform="translate(-11.35 23.031)" fill="none"/>
    </clipPath>
    <clipPath id="clip-path-26">
      <path id="Path_52" data-name="Path 52" d="M9.931-21.623a1.409,1.409,0,0,1-.871,1.3,1.409,1.409,0,0,1-1.536-.308,1.409,1.409,0,0,1-.3-1.537,1.409,1.409,0,0,1,1.306-.865,1.4,1.4,0,0,1,.994.413,1.4,1.4,0,0,1,.409,1" transform="translate(-7.114 23.031)" fill="none"/>
    </clipPath>
    <clipPath id="clip-path-27">
      <path id="Path_54" data-name="Path 54" d="M67.24-13.608a9.106,9.106,0,0,1-4.345,6.225,7.975,7.975,0,0,1-3.854,1.06H58.009a7.933,7.933,0,0,0,3.848-1.06,8.989,8.989,0,0,0,3-2.87,8.876,8.876,0,0,0,1.337-3.355,6.488,6.488,0,0,0-3.728-7.4,1.288,1.288,0,0,1-.659-.6,1.527,1.527,0,0,1-.126-.941,6.273,6.273,0,0,0-6.329-7.686h1.031c4.25,0,7.007,3,6.263,7.249a1.509,1.509,0,0,0,.12.935,1.276,1.276,0,0,0,.665.6c2.925,1.24,4.369,4.691,3.8,7.848" transform="translate(-55.348 30.239)" fill="none"/>
    </clipPath>
    <clipPath id="clip-path-28">
      <path id="Path_56" data-name="Path 56" d="M63.107-13.623a9.166,9.166,0,0,1-4.351,6.231A7.956,7.956,0,0,1,54.9-6.332H37.652c-.066,0-.108-.054-.066-.126l1.6-3.517a.809.809,0,0,1,.707-.473h15.74a3,3,0,0,0,1.522-.425,3.452,3.452,0,0,0,1.2-1.132A4.27,4.27,0,0,0,59-13.623a3.145,3.145,0,0,0-1.8-3.595,4.471,4.471,0,0,1-2.284-2.127,5.168,5.168,0,0,1-.426-3.283,2.9,2.9,0,0,0-.619-2.512A2.908,2.908,0,0,0,51.5-26.162h-3.92a.641.641,0,0,1-.55-.287.641.641,0,0,1-.05-.618l1.037-2.259a1.655,1.655,0,0,1,1.5-.965H52.24A6.274,6.274,0,0,1,58.576-22.6a1.527,1.527,0,0,0,.126.941,1.247,1.247,0,0,0,.665.6A6.515,6.515,0,0,1,63.1-13.653" transform="translate(-37.569 30.29)" fill="none"/>
    </clipPath>
  </defs>
  <g id="Group_29" data-name="Group 29" transform="translate(-0.47 30.29)">
    <g id="Group_1" data-name="Group 1" transform="translate(63.705 -25.432)" clip-path="url(#clip-path)">
      <path id="Path_1" data-name="Path 1" d="M72.706-29.346h25.04v27.31H72.706Z" transform="translate(-76.801 25.25)" fill="#fff"/>
    </g>
    <g id="Group_2" data-name="Group 2" transform="translate(80.03 -19.801)" clip-path="url(#clip-path-2)">
      <path id="Path_3" data-name="Path 3" d="M92.644-22.471H114.1V-.8H92.644Z" transform="translate(-96.74 18.376)" fill="#fff"/>
    </g>
    <g id="Group_3" data-name="Group 3" transform="translate(93.418 -19.801)" clip-path="url(#clip-path-3)">
      <path id="Path_5" data-name="Path 5" d="M109-22.471h21.458V-.8H109Z" transform="translate(-113.092 18.376)" fill="#fff"/>
    </g>
    <g id="Group_4" data-name="Group 4" transform="translate(106.77 -26.034)" clip-path="url(#clip-path-4)">
      <path id="Path_7" data-name="Path 7" d="M125.3-30.081h22.87V-2.16H125.3Z" transform="translate(-129.4 25.985)" fill="#fff"/>
    </g>
    <g id="Group_5" data-name="Group 5" transform="translate(119.494 -19.513)" clip-path="url(#clip-path-5)">
      <path id="Path_9" data-name="Path 9" d="M140.842-22.12h13.769V-.729H140.842Z" transform="translate(-144.938 18.024)" fill="#fff"/>
    </g>
    <g id="Group_6" data-name="Group 6" transform="translate(123.201 -23.899)" clip-path="url(#clip-path-6)">
      <path id="Path_11" data-name="Path 11" d="M145.369-27.484h11.375v11.349H145.369Z" transform="translate(-149.465 23.388)" fill="#fff"/>
    </g>
    <g id="Group_7" data-name="Group 7" transform="translate(128.811 -24.691)" clip-path="url(#clip-path-7)">
      <path id="Path_13" data-name="Path 13" d="M152.225-28.441H175.14V-1.849H152.225Z" transform="translate(-156.321 24.346)" fill="#fff"/>
    </g>
    <g id="Group_8" data-name="Group 8" transform="translate(143.248 -19.777)" clip-path="url(#clip-path-8)">
      <path id="Path_15" data-name="Path 15" d="M169.857-22.443H191.33V-.77H169.857Z" transform="translate(-173.953 18.347)" fill="#fff"/>
    </g>
    <g id="Group_9" data-name="Group 9" transform="translate(155.342 -19.111)" clip-path="url(#clip-path-9)">
      <path id="Path_17" data-name="Path 17" d="M184.629-21.629h20.763V-.653H184.629Z" transform="translate(-188.725 17.534)" fill="#fff"/>
    </g>
    <g id="Group_10" data-name="Group 10" transform="translate(167.262 -19.813)" clip-path="url(#clip-path-10)">
      <path id="Path_19" data-name="Path 19" d="M199.207-22.487H220.66V-.807H199.207Z" transform="translate(-203.302 18.391)" fill="#fff"/>
    </g>
    <g id="Group_11" data-name="Group 11" transform="translate(180.634 -19.807)" clip-path="url(#clip-path-11)">
      <path id="Path_21" data-name="Path 21" d="M215.532-22.479h21.434v21.7H215.532Z" transform="translate(-219.627 18.383)" fill="#fff"/>
    </g>
    <g id="Group_12" data-name="Group 12" transform="translate(193.708 -19.609)" clip-path="url(#clip-path-12)">
      <path id="Path_23" data-name="Path 23" d="M231.492-22.237h18.015V-.751H231.492Z" transform="translate(-235.587 18.141)" fill="#fff"/>
    </g>
    <g id="Group_13" data-name="Group 13" transform="translate(199.897 -7.814)" clip-path="url(#clip-path-13)">
      <path id="Path_25" data-name="Path 25" d="M239.047-7.838h9.77V1.854h-9.77Z" transform="translate(-243.143 3.742)" fill="#fff"/>
    </g>
    <g id="Group_14" data-name="Group 14" transform="translate(202.731 -13.777)" clip-path="url(#clip-path-14)">
      <path id="Path_27" data-name="Path 27" d="M242.507-15.118h11.467V.515H242.507Z" transform="translate(-246.603 11.022)" fill="#fff"/>
    </g>
    <g id="Group_15" data-name="Group 15" transform="translate(205.256 -11.847)" clip-path="url(#clip-path-15)">
      <path id="Path_29" data-name="Path 29" d="M245.59-12.762h14.042V.952H245.59Z" transform="translate(-249.686 8.666)" fill="#fff"/>
    </g>
    <g id="Group_16" data-name="Group 16" transform="translate(19.24 -26.142)" clip-path="url(#clip-path-16)">
      <path id="Path_31" data-name="Path 31" d="M18.385-30.219H43.918V-6.3H18.385Z" transform="translate(-22.48 26.124)" fill="#0f1e3b"/>
    </g>
    <g id="Group_17" data-name="Group 17" transform="translate(13.488 -30.266)" clip-path="url(#clip-path-17)">
      <path id="Path_33" data-name="Path 33" d="M11.362-35.261H46.006V-3.1H11.362Z" transform="translate(-15.458 31.167)" fill="#fff"/>
    </g>
    <g id="Group_18" data-name="Group 18" transform="translate(7.716 -15.481)" clip-path="url(#clip-path-18)">
      <path id="Path_35" data-name="Path 35" d="M4.316-17.2H22.511v11.11H4.316Z" transform="translate(-8.412 13.106)" fill="#fff"/>
    </g>
    <g id="Group_19" data-name="Group 19" transform="translate(3.94 -15.427)" clip-path="url(#clip-path-19)">
      <path id="Path_37" data-name="Path 37" d="M-.293-17.136H10.715V-6.128H-.293Z" transform="translate(-3.802 13.041)" fill="#fff"/>
    </g>
    <g id="Group_20" data-name="Group 20" transform="translate(0.47 -15.427)" clip-path="url(#clip-path-20)">
      <path id="Path_39" data-name="Path 39" d="M-4.53-17.136H6.478V-6.128H-4.53Z" transform="translate(0.434 13.041)" fill="#fff"/>
    </g>
    <g id="Group_21" data-name="Group 21" transform="translate(10.222 -19.836)" clip-path="url(#clip-path-21)">
      <path id="Path_41" data-name="Path 41" d="M7.375-22.522H25.57v11.116H7.375Z" transform="translate(-11.471 18.426)" fill="#fff"/>
    </g>
    <g id="Group_22" data-name="Group 22" transform="translate(6.446 -19.783)" clip-path="url(#clip-path-22)">
      <path id="Path_43" data-name="Path 43" d="M2.765-22.456H13.774v11.009H2.765Z" transform="translate(-6.861 18.36)" fill="#fff"/>
    </g>
    <g id="Group_23" data-name="Group 23" transform="translate(2.951 -19.783)" clip-path="url(#clip-path-23)">
      <path id="Path_45" data-name="Path 45" d="M-1.5-22.456H9.508v11.009H-1.5Z" transform="translate(-2.595 18.36)" fill="#fff"/>
    </g>
    <g id="Group_24" data-name="Group 24" transform="translate(13.159 -24.413)" clip-path="url(#clip-path-24)">
      <path id="Path_47" data-name="Path 47" d="M10.96-28.112H29.155V-17H10.96Z" transform="translate(-15.056 24.016)" fill="#fff"/>
    </g>
    <g id="Group_25" data-name="Group 25" transform="translate(9.383 -24.347)" clip-path="url(#clip-path-25)">
      <path id="Path_49" data-name="Path 49" d="M6.35-28.031H17.359v11.009H6.35Z" transform="translate(-10.446 23.936)" fill="#fff"/>
    </g>
    <g id="Group_26" data-name="Group 26" transform="translate(5.912 -24.347)" clip-path="url(#clip-path-26)">
      <path id="Path_51" data-name="Path 51" d="M2.114-28.031H13.122v11.009H2.114Z" transform="translate(-6.21 23.936)" fill="#fff"/>
    </g>
    <g id="Group_27" data-name="Group 27" transform="translate(45.401 -30.248)" clip-path="url(#clip-path-27)">
      <path id="Path_53" data-name="Path 53" d="M50.348-35.239H70.541v32.1H50.348Z" transform="translate(-54.444 31.145)" fill="#0f1e3b"/>
    </g>
    <g id="Group_28" data-name="Group 28" transform="translate(30.859 -30.29)" clip-path="url(#clip-path-28)">
      <path id="Path_55" data-name="Path 55" d="M32.569-35.29H66.411V-3.145H32.569Z" transform="translate(-36.665 31.196)" fill="#fff"/>
    </g>
  </g>
</svg>
